<?xml version="1.0" encoding="UTF-8" standalone="no"?>
<!-- Created with Inkscape (http://www.inkscape.org/) -->

<svg
   xmlns:dc="http://purl.org/dc/elements/1.1/"
   xmlns:cc="http://creativecommons.org/ns#"
   xmlns:rdf="http://www.w3.org/1999/02/22-rdf-syntax-ns#"
   xmlns:svg="http://www.w3.org/2000/svg"
   xmlns="http://www.w3.org/2000/svg"
   xmlns:sodipodi="http://sodipodi.sourceforge.net/DTD/sodipodi-0.dtd"
   xmlns:inkscape="http://www.inkscape.org/namespaces/inkscape"
   width="900mm"
   height="900mm"
   viewBox="0 0 3188.9764 3188.9764"
   id="svg2"
   version="1.1"
   inkscape:version="0.91 r13725"
   sodipodi:docname="logo.svg">
  <defs
     id="defs4" />
  <sodipodi:namedview
     id="base"
     pagecolor="#ffffff"
     bordercolor="#666666"
     borderopacity="1.0"
     inkscape:pageopacity="0.0"
     inkscape:pageshadow="2"
     inkscape:zoom="0.0875"
     inkscape:cx="818.6575"
     inkscape:cy="-142.39378"
     inkscape:document-units="px"
     inkscape:current-layer="layer1"
     showgrid="false"
     inkscape:window-width="1916"
     inkscape:window-height="1029"
     inkscape:window-x="0"
     inkscape:window-y="24"
     inkscape:window-maximized="0" />
  <metadata
     id="metadata7">
    <rdf:RDF>
      <cc:Work
         rdf:about="">
        <dc:format>image/svg+xml</dc:format>
        <dc:type
           rdf:resource="http://purl.org/dc/dcmitype/StillImage" />
        <dc:title />
      </cc:Work>
    </rdf:RDF>
  </metadata>
  <g
     inkscape:label="Layer 1"
     inkscape:groupmode="layer"
     id="layer1"
     transform="translate(0,2136.6142)">
    <text
       xml:space="preserve"
       style="font-style:normal;font-weight:normal;font-size:4213.01660156px;line-height:125%;font-family:sans-serif;letter-spacing:0px;word-spacing:0px;fill:#000000;fill-opacity:1;stroke:none;stroke-width:1px;stroke-linecap:butt;stroke-linejoin:miter;stroke-opacity:1"
       x="-249.41934"
       y="1000.8182"
       id="text3336"
       sodipodi:linespacing="125%"
       transform="scale(0.97649719,1.0240685)"><tspan
         sodipodi:role="line"
         id="tspan3338"
         x="-249.41934"
         y="1000.8182">⚖</tspan></text>
    <path
       style="fill:#ffffff"
       d="M 585.86728,3187.8896 C 340.83025,3142.9391 142.74165,3014.0404 57.81334,2844.2788 -17.18534,2694.3652 -31.760789,2764.138 278.40521,1788.3032 429.7154,1312.2558 553.51464,918.01337 553.51464,912.2091 c 0,-6.07013 -89.46433,-10.55323 -210.59908,-10.55323 l -210.59909,0 -23.68663,-30.11267 C 82.919062,838.85724 76.755161,766.8813 96.506266,729.97603 115.60725,694.28552 182.57932,684.64368 411.84894,684.57675 l 218.33431,-0.0637 49.78176,-155.27396 49.78175,-155.27395 49.43181,155.48748 49.43182,155.48749 259.44661,-3.07068 259.4466,-3.07067 122.4722,-320 c 67.3598,-176 124.0521,-324.019606 125.9831,-328.932458 1.9308,-4.912851 60.028,140.302388 129.1047,322.700528 l 125.5939,331.63298 259.6203,0.15657 259.6203,0.15657 49.0731,-155.3619 49.0732,-155.36192 50.8324,155.36192 50.8325,155.362 217.6169,0.064 c 228.5784,0.0674 295.535,9.72854 314.6254,45.39928 17.4758,32.65401 13.8593,117.60138 -6.2278,146.27977 -17.32,24.72744 -23.5218,25.3998 -234.2857,25.3998 -149.9988,0 -216.4949,3.86622 -216.4949,12.58744 0,6.9231 124.1487,401.63739 275.8858,877.14289 l 275.886,864.5554 -12.979,62.6395 c -20.2394,97.6803 -66.9984,180.0269 -149.1118,262.5988 -86.883,87.3682 -191.0501,146.3076 -327.3389,185.2138 -129.7225,37.0317 -349.2473,37.0317 -478.9699,0 -197.4715,-56.3719 -354.4877,-174.1014 -428.9605,-321.6313 -72.5574,-143.7352 -83.6408,-90.7337 221.3325,-1058.4279 148.4836,-471.1448 269.9701,-862.93856 269.9701,-870.65278 0,-10.92897 -154.0978,-14.02585 -697.913,-14.02585 -659.53124,0 -697.55626,1.09989 -691.42602,20 3.56784,11 127.67822,400.57143 275.80082,865.71433 306.8457,963.5736 294.9973,906.0702 218.5607,1060.7291 -72.6059,146.9082 -223.6038,260.7336 -419.4949,316.2239 -95.73785,27.1198 -302.79752,39.6215 -390.31782,23.5664 z m 436.21882,-463.8903 c 137.5144,-19.1663 269.1799,-53.0432 267.268,-68.7666 -4.9293,-40.5396 -548.85391,-1739.15996 -554.90241,-1732.90295 -8.9736,9.28292 -560.29228,1741.13095 -555.57098,1745.20555 9.92856,8.5688 223.32044,51.9007 306.0625,62.1499 186.25348,23.071 342.69984,21.415 537.14289,-5.6859 z m 1742.6805,-0.2571 c 153.2894,-22.9397 268.7715,-51.6616 268.6419,-66.815 -0.1315,-15.3055 -546.3043,-1734.06286 -553.2414,-1741.00006 -2.7426,-2.74257 -35.928,91.92436 -73.7454,210.37096 -292.574,916.3623 -481.4785,1516.4485 -481.4785,1529.4958 0,26.506 239.8477,73.7725 428.5714,84.4582 161.0648,9.1197 268.9236,4.7896 411.252,-16.5097 l 0,-2e-4 z"
       id="path3969"
       inkscape:connector-curvature="0"
       transform="translate(0,-2136.6142)" />
  </g>
</svg>
